<svg width="28" height="27" viewBox="0 0 28 27" fill="none" xmlns="http://www.w3.org/2000/svg">
<path d="M17.0271 19.9786L16.9669 20.4199C16.9395 20.6205 16.9196 20.7801 16.9067 20.9009C16.8929 21.0298 16.8896 21.0911 16.8896 21.1076C16.8896 21.8588 17.1449 22.4756 17.6666 22.9973C18.1883 23.5191 18.8052 23.7743 19.5563 23.7743C20.3074 23.7743 20.9243 23.5191 21.446 22.9973C21.9677 22.4756 22.223 21.8588 22.223 21.1076C22.223 20.3565 21.9677 19.7396 21.446 19.2179C20.9243 18.6962 20.3075 18.441 19.5564 18.441L17.0271 19.9786ZM17.0271 19.9786L16.6424 19.7541M17.0271 19.9786L16.6424 19.7541M16.6424 19.7541L8.8368 15.1985L8.40746 14.948M16.6424 19.7541L8.40746 14.948M8.40746 14.948L8.0448 15.2879M8.40746 14.948L8.0448 15.2879M8.0448 15.2879C7.81028 15.5078 7.53787 15.6819 7.22235 15.8099C6.91807 15.9333 6.58741 15.9971 6.22409 15.9965H6.22298M8.0448 15.2879L6.22298 15.9965M6.22298 15.9965C5.47185 15.9965 4.85498 15.7413 4.33328 15.2196C3.81157 14.6979 3.55632 14.081 3.55632 13.3299C3.55632 12.5787 3.81157 11.9619 4.33328 11.4402C4.85498 10.9185 5.47185 10.6632 6.22298 10.6632C6.58665 10.6632 6.9177 10.7274 7.22235 10.851C7.53824 10.9791 7.81086 11.153 8.04545 11.3724L8.40806 11.7114M6.22298 15.9965L8.40806 11.7114M8.40806 11.7114L8.8368 11.4612M8.40806 11.7114L8.8368 11.4612M8.8368 11.4612L16.6424 6.90564L17.0896 6.64462M8.8368 11.4612L17.0896 6.64462M17.0896 6.64462L16.9473 6.14671M17.0896 6.64462L16.9473 6.14671M16.9473 6.14671C16.9213 6.05564 16.9074 5.9758 16.9023 5.90617C16.8948 5.80496 16.8904 5.68677 16.8896 5.55052C16.89 4.8001 17.1453 4.18372 17.6666 3.66238C18.1883 3.14067 18.8052 2.88542 19.5563 2.88542C20.3074 2.88542 20.9243 3.14067 21.446 3.66238C21.9677 4.18408 22.223 4.80095 22.223 5.55208C22.223 6.30322 21.9677 6.92009 21.446 7.44179C20.9243 7.9635 20.3074 8.21875 19.5563 8.21875C19.1926 8.21875 18.8616 8.15459 18.5569 8.03099C18.2411 7.90283 17.9684 7.72891 17.7339 7.50956L17.3712 7.17052M16.9473 6.14671L17.3712 7.17052M17.3712 7.17052L16.9425 7.42075M17.3712 7.17052L16.9425 7.42075M16.9425 7.42075L9.13694 11.9763L8.68971 12.2373M16.9425 7.42075L8.68971 12.2373M8.68971 12.2373L8.83197 12.7352M8.68971 12.2373L8.83197 12.7352M8.83197 12.7352C8.85821 12.8271 8.87268 12.9086 8.87843 12.9806C8.88628 13.0791 8.89032 13.194 8.88966 13.3265C8.88897 13.4629 8.88487 13.5833 8.87781 13.6886C8.87332 13.7555 8.86005 13.8309 8.83453 13.9157L8.68336 14.4187M8.83197 12.7352L8.68336 14.4187M8.68336 14.4187L9.13694 14.6834M8.68336 14.4187L9.13694 14.6834M9.13694 14.6834L16.9425 19.239L17.3718 19.4895M9.13694 14.6834L17.3718 19.4895M17.3718 19.4895L17.7345 19.1496M17.3718 19.4895L17.7345 19.1496M17.7345 19.1496C17.9688 18.9299 18.2408 18.7564 18.5559 18.6291M17.7345 19.1496L18.5559 18.6291M18.5559 18.6291C18.8609 18.506 19.1923 18.4417 19.5563 18.441L18.5559 18.6291ZM7.47298 10.2332C7.86187 10.391 8.20446 10.6084 8.50076 10.8854V15.7743C8.20446 16.0521 7.86187 16.2699 7.47298 16.4276C7.08409 16.5854 6.66743 16.6639 6.22298 16.6632C5.29706 16.6632 4.51002 16.3391 3.86187 15.691C3.21372 15.0428 2.88965 14.2558 2.88965 13.3299C2.88965 12.4039 3.21372 11.6169 3.86187 10.9688C4.51002 10.3206 5.29706 9.99653 6.22298 9.99653C6.66743 9.99653 7.08409 10.0754 7.47298 10.2332Z" fill="#FF6BB8" stroke="#FF6BB8" stroke-width="1.33333"/>
</svg>
