<svg width="81" height="69" viewBox="0 0 81 69" fill="none" xmlns="http://www.w3.org/2000/svg">
<path d="M19.6812 68.2129C16.3212 68.2129 13.1945 67.3729 10.3012 65.6929C7.40787 64.0129 5.12121 61.7729 3.44121 58.9729C1.76121 56.1729 0.921206 53.0929 0.921206 49.7329V49.1729C0.73454 43.7596 1.57454 37.7862 3.44121 31.2529C6.61454 21.1729 12.2145 11.0929 20.2412 1.01289C20.6145 0.452888 21.0812 0.312889 21.6412 0.592888C22.2012 0.872887 22.3879 1.29289 22.2012 1.85289C21.2679 4.46622 20.5212 7.63956 19.9612 11.3729C18.8412 18.6529 19.0279 25.1862 20.5212 30.9729C25.5612 31.3462 29.8079 33.3529 33.2612 36.9929C36.7145 40.6329 38.3479 44.9729 38.1612 50.0129C37.9745 55.0529 36.1079 59.3462 32.5612 62.8929C29.0145 66.4396 24.7212 68.2129 19.6812 68.2129ZM3.16121 49.7329C3.34787 54.2129 5.02787 58.0396 8.20121 61.2129C11.3745 64.3862 15.2012 65.9729 19.6812 65.9729C24.1612 65.9729 27.9879 64.3862 31.1612 61.2129C34.3345 58.0396 35.9212 54.1662 35.9212 49.5929C35.9212 45.0196 34.3345 41.1462 31.1612 37.9729C27.9879 34.7996 24.1612 33.2129 19.6812 33.2129C19.1212 33.2129 18.7479 32.9329 18.5612 32.3729C16.5079 24.9062 16.5079 16.4129 18.5612 6.89289C12.2145 15.8529 7.82787 24.7196 5.40121 33.4929C3.72121 39.0929 2.97454 44.3196 3.16121 49.1729V49.7329ZM61.9612 68.2129C58.4145 68.2129 55.2412 67.3729 52.4412 65.6929C49.6412 64.0129 47.4012 61.7729 45.7212 58.9729C44.0412 56.1729 43.2012 53.0929 43.2012 49.7329V49.1729C42.8279 43.7596 43.6679 37.7862 45.7212 31.2529C48.8945 21.1729 54.4945 11.0929 62.5212 1.01289C62.8945 0.452888 63.3612 0.312889 63.9212 0.592888C64.4812 0.872887 64.6679 1.29289 64.4812 1.85289C63.5479 4.46622 62.8012 7.63956 62.2412 11.3729C61.1212 18.6529 61.3079 25.1862 62.8012 30.9729C67.8412 31.3462 72.0879 33.3529 75.5412 36.9929C78.9945 40.6329 80.6279 44.9729 80.4412 50.0129C80.2545 55.0529 78.3879 59.3462 74.8412 62.8929C71.2945 66.4396 66.9079 68.2129 61.6812 68.2129H61.9612ZM45.4412 49.7329C45.4412 54.2129 47.0745 58.0396 50.3412 61.2129C53.6079 64.3862 57.4812 65.9729 61.9612 65.9729C66.4412 65.9729 70.2679 64.3862 73.4412 61.2129C76.6145 58.0396 78.2012 54.1662 78.2012 49.5929C78.2012 45.0196 76.6145 41.1462 73.4412 37.9729C70.2679 34.7996 66.4412 33.2129 61.9612 33.2129C61.2145 33.2129 60.8412 32.9329 60.8412 32.3729C58.7879 24.9062 58.6945 16.4129 60.5612 6.89289C54.2145 15.8529 49.8279 24.7196 47.4012 33.4929C45.9079 39.0929 45.2545 44.3196 45.4412 49.1729V49.7329Z" fill="#2C2C2C"/>
</svg>
